# xmcd CD database file
#
# Track frame offsets:
#	150
#	13935
#	26830
#	48662
#	67057
#	82672
#	99945
#	113892
#	129432
#	145975
#	167725
#	184410
#	203312
#
# Disc length: 3137 seconds
#
# Revision: 0
# Processed by: cddbd v1.5.1PL2 Copyright (c) Steve Scherf et al.
# Submitted via: CDex 1.50
#
DISCID=af0c3f0d
DTITLE=Various Artist - Para se ouvir no aconchego do rancho
DYEAR=2005
DGENRE=Country
TTITLE0=Cuitelinho
TTITLE1=Luar do sertão
TTITLE2=Vaca Estrela, Boi Fubá
TTITLE3=Folia de rei
TTITLE4=Dona Felicidade
TTITLE5=Hoje eu não posso ir
TTITLE6=Meu céu
TTITLE7=Minha história (gesumbambino)
TTITLE8=Felicidade - Prenda minha
TTITLE9=Vide vida marvada
TTITLE10=Andorinha
TTITLE11=Bandeira do divino
TTITLE12=De volta pro aconchego - Gostoso demais - Tenho sede
EXTD=YEAR: 2005
EXTT0=
EXTT1=
EXTT2=
EXTT3=
EXTT4=
EXTT5=
EXTT6=
EXTT7=
EXTT8=
EXTT9=
EXTT10=
EXTT11=
EXTT12=
PLAYORDER=
